<mxfile host="app.diagrams.net" modified="2024-05-21T04:11:24.417Z" agent="Mozilla/5.0 (Windows NT 10.0; Win64; x64; rv:123.0) Gecko/20100101 Firefox/123.0" version="24.2.5" etag="nkPyneg80swvvAVB0ABd" type="github">
  <diagram name="Page-1" id="dUwEF0XCNVyR58GGala9">
    <mxGraphModel>
      <root>
        <mxCell id="0" />
        <mxCell id="1" parent="0" />
      </root>
    </mxGraphModel>
  </diagram>
</mxfile>
